<svg width="100" height="117" viewBox="0 0 100 117" fill="none" xmlns="http://www.w3.org/2000/svg">
<g filter="url(#filter0_ii_202_192)">
<path fill-rule="evenodd" clip-rule="evenodd" d="M95.6073 90.1008C96.6424 103.5 96.6424 109.781 96.6424 116.637H65.8774C65.8774 115.144 65.9039 113.778 65.9303 112.392C66.0135 108.086 66.1005 103.595 65.408 94.5263C64.4932 81.2497 58.8195 78.2992 48.3871 78.2992H0V54.1428H49.8513C63.0289 54.1428 69.6174 50.1029 69.6174 39.4077C69.6174 30.0035 63.0289 24.304 49.8513 24.304H0V0.666199H55.3416C85.1748 0.666199 100 14.8651 100 37.5465C100 54.5114 89.5675 65.5752 75.4744 67.4194C87.3712 69.8167 94.3257 76.6396 95.6073 90.1008Z" fill="#4797FF"/>
<path d="M0 116.638V98.6293H32.5298C37.9634 98.6293 39.1429 102.691 39.1429 105.112V116.638H0Z" fill="#83B9FF"/>
</g>
<defs>
<filter id="filter0_ii_202_192" x="0" y="0.666199" width="100" height="115.971" filterUnits="userSpaceOnUse" color-interpolation-filters="sRGB">
<feFlood flood-opacity="0" result="BackgroundImageFix"/>
<feBlend mode="normal" in="SourceGraphic" in2="BackgroundImageFix" result="shape"/>
<feColorMatrix in="SourceAlpha" type="matrix" values="0 0 0 0 0 0 0 0 0 0 0 0 0 0 0 0 0 0 127 0" result="hardAlpha"/>
<feOffset/>
<feGaussianBlur stdDeviation="21"/>
<feComposite in2="hardAlpha" operator="arithmetic" k2="-1" k3="1"/>
<feColorMatrix type="matrix" values="0 0 0 0 0.223529 0 0 0 0 0.572549 0 0 0 0 1 0 0 0 1 0"/>
<feBlend mode="normal" in2="shape" result="effect1_innerShadow_202_192"/>
<feColorMatrix in="SourceAlpha" type="matrix" values="0 0 0 0 0 0 0 0 0 0 0 0 0 0 0 0 0 0 127 0" result="hardAlpha"/>
<feOffset/>
<feGaussianBlur stdDeviation="14"/>
<feComposite in2="hardAlpha" operator="arithmetic" k2="-1" k3="1"/>
<feColorMatrix type="matrix" values="0 0 0 0 0.223529 0 0 0 0 0.572549 0 0 0 0 1 0 0 0 0.9 0"/>
<feBlend mode="normal" in2="effect1_innerShadow_202_192" result="effect2_innerShadow_202_192"/>
</filter>
</defs>
</svg>
